<?xml version="1.0" encoding="UTF-8" standalone="no"?>
<svg
   viewBox="0 0 576 512"
   version="1.1"
   id="svg7583"
   xmlns="http://www.w3.org/2000/svg"
   xmlns:svg="http://www.w3.org/2000/svg">
  <defs
     id="defs7587" />
  <rect
     style="opacity:1;fill:#89b955;fill-opacity:1;stroke:#000000;stroke-width:3.00472;stroke-dasharray:none;stroke-opacity:1"
     id="rect8087"
     width="125.88599"
     height="132.21927"
     x="89.834389"
     y="295.94821"
     rx="0"
     ry="0" />
  <rect
     style="opacity:1;fill:#5e55b9;fill-opacity:1;stroke:#000000;stroke-width:3.00472;stroke-dasharray:none;stroke-opacity:1"
     id="rect8141"
     width="135.03778"
     height="130.18565"
     x="244.48105"
     y="34.115376"
     transform="rotate(33.310497)" />
  <path
     style="opacity:1;fill:#a9ccd2;fill-opacity:1;stroke:#000000;stroke-width:3.00472;stroke-dasharray:none;stroke-opacity:1"
     id="path8195"
     d="m 388.76665,131.05024 -44.09925,-13.1324 -1.87795,45.97474 -25.34064,-38.40645 -30.99059,34.01157 5.27514,-45.7097 -45.60239,6.13401 33.42262,-31.624867 -38.87632,-24.613724 45.93129,-2.74241 -13.9596,-43.844425 36.9482,27.423254 17.48898,-42.5598332 10.67663,44.7572732 40.75427,-21.361022 -20.59064,41.148867 44.95018,9.832849 -42.22333,18.286448 z"
     transform="matrix(1.5096753,0,0,1.5098734,-174.66417,221.19094)" />
  <ellipse
     style="fill:#ff0000;fill-rule:evenodd;stroke-width:0.947466"
     id="path9185"
     cx="413.75452"
     cy="345.31262"
     rx="44.620312"
     ry="70.639297" />
  <g
     id="g9263"
     style="opacity:1;fill:#a9ccd2;fill-opacity:1;stroke:#000000;stroke-width:3.00472;stroke-dasharray:none;stroke-opacity:1">
    <path
       id="path9275"
       style="fill:#e9e9ff;fill-rule:evenodd;stroke:none;stroke-linejoin:round"
       d="M 506.77302,155.90542 546.0162,115.3827 v 77.77291 l -39.24318,30.22938 z"
       points="546.0162,115.3827 546.0162,193.15561 506.77302,223.38499 506.77302,155.90542 " />
    <path
       id="path9265"
       style="fill:#353564;fill-rule:evenodd;stroke:none;stroke-linejoin:round"
       d="m 429.32921,143.03221 v 70.74955 l 77.44381,9.60323 v -67.47957 z"
       points="429.32921,213.78176 506.77302,223.38499 506.77302,155.90542 429.32921,143.03221 " />
    <path
       id="path9267"
       style="fill:#4d4d9f;fill-rule:evenodd;stroke:none;stroke-linejoin:round"
       d="m 429.32921,143.03221 28.97328,-44.87696 87.71371,17.22745 -39.24318,40.52272 z"
       points="458.30249,98.15525 546.0162,115.3827 506.77302,155.90542 429.32921,143.03221 " />
    <path
       id="path9273"
       style="fill:#afafde;fill-rule:evenodd;stroke:none;stroke-linejoin:round"
       d="m 429.32921,213.78176 28.97328,-33.47759 87.71371,12.85144 -39.24318,30.22938 z"
       points="458.30249,180.30417 546.0162,193.15561 506.77302,223.38499 429.32921,213.78176 " />
    <path
       id="path9271"
       style="fill:#d7d7ff;fill-rule:evenodd;stroke:none;stroke-linejoin:round"
       d="m 458.30249,98.15525 v 82.14892 l 87.71371,12.85144 V 115.3827 Z"
       points="458.30249,180.30417 546.0162,193.15561 546.0162,115.3827 458.30249,98.15525 " />
    <path
       id="path9269"
       style="fill:#8686bf;fill-rule:evenodd;stroke:none;stroke-linejoin:round"
       d="m 429.32921,143.03221 28.97328,-44.87696 v 82.14892 l -28.97328,33.47759 z"
       points="458.30249,98.15525 458.30249,180.30417 429.32921,213.78176 429.32921,143.03221 " />
  </g>
  <g
     id="g9277"
     style="opacity:1;fill:#b66d27;fill-opacity:1;stroke:#000000;stroke-width:3.00472;stroke-dasharray:none;stroke-opacity:1">
    <path
       id="path9283"
       style="fill:#b66d27;fill-opacity:1;fill-rule:evenodd;stroke:none;stroke-linejoin:round"
       d="m 410.95034,179.94756 23.66588,105.38158 V 230.93555 L 410.95034,120.81946 Z"
       points="434.61622,285.32914 434.61622,230.93555 410.95034,120.81946 410.95034,179.94756 " />
    <path
       id="path9279"
       style="fill:#b66d27;fill-opacity:1;fill-rule:evenodd;stroke:none;stroke-linejoin:round"
       d="m 410.95034,179.94756 v -59.1281 L 251.3976,84.297705 v 60.698365 z"
       points="410.95034,120.81946 251.3976,84.297705 251.3976,144.99607 410.95034,179.94756 " />
    <path
       id="path9281"
       style="display:none;fill:#b66d27;fill-opacity:1;fill-rule:evenodd;stroke:none;stroke-linejoin:round"
       d="M 410.95034,179.94756 434.61622,285.32914 288.72756,255.81359 251.3976,144.99607 Z"
       points="434.61622,285.32914 288.72756,255.81359 251.3976,144.99607 410.95034,179.94756 " />
    <path
       id="path9289"
       style="fill:#b66d27;fill-opacity:1;fill-rule:evenodd;stroke:none;stroke-linejoin:round"
       d="m 251.3976,144.99607 37.32996,110.81752 V 200.09394 L 251.3976,84.297705 Z"
       points="288.72756,255.81359 288.72756,200.09394 251.3976,84.297705 251.3976,144.99607 " />
    <path
       id="path9285"
       style="fill:#b66d27;fill-opacity:1;fill-rule:evenodd;stroke:none;stroke-linejoin:round"
       d="M 434.61622,285.32914 V 230.93555 L 288.72756,200.09394 v 55.71965 z"
       points="434.61622,230.93555 288.72756,200.09394 288.72756,255.81359 434.61622,285.32914 " />
    <path
       id="path9287"
       style="fill:#b66d27;fill-opacity:1;fill-rule:evenodd;stroke:none;stroke-linejoin:round"
       d="M 410.95034,120.81946 434.61622,230.93555 288.72756,200.09394 251.3976,84.297705 Z"
       points="434.61622,230.93555 288.72756,200.09394 251.3976,84.297705 410.95034,120.81946 " />
  </g>
  <g
     id="g14275"
     style="opacity:1;fill:#579b42;fill-opacity:1;stroke:#000000;stroke-width:3.00472;stroke-dasharray:none;stroke-opacity:1">
    <path
       id="path14281"
       style="fill:#579b42;fill-opacity:1;stroke-width:12.4082"
       d="m 45.328261,153.8608 -9.009982,7.78565 212.184541,213.63132 17.9428,1.20807 z"
       points="36.318279,161.64645 248.50282,375.27777 266.44562,376.48584 45.328261,153.8608 " />
    <path
       id="path14277"
       style="fill:#579b42;fill-opacity:1;fill-rule:evenodd;stroke:none;stroke-width:12.4082;stroke-linejoin:round"
       d="M 45.328261,153.8608 266.44562,376.48584 384.68132,271.00663 157.95165,42.731009 Z"
       points="266.44562,376.48584 384.68132,271.00663 157.95165,42.731009 45.328261,153.8608 " />
    <path
       id="path14279"
       style="fill:#579b42;fill-opacity:1;fill-rule:evenodd;stroke:none;stroke-width:12.4082;stroke-linejoin:round"
       d="M 45.328261,153.8608 36.318279,161.64645 144.06192,55.304816 157.95165,42.731009 Z"
       points="36.318279,161.64645 144.06192,55.304816 157.95165,42.731009 45.328261,153.8608 " />
    <path
       id="path14287"
       style="fill:#579b42;fill-opacity:1;fill-rule:evenodd;stroke:none;stroke-width:12.4082;stroke-linejoin:round"
       d="m 157.95165,42.731009 -13.88973,12.573807 217.34726,218.829234 23.27214,-3.12742 z"
       points="144.06192,55.304816 361.40918,274.13405 384.68132,271.00663 157.95165,42.731009 " />
    <path
       id="path14283"
       style="fill:#579b42;fill-opacity:1;fill-rule:evenodd;stroke:none;stroke-width:12.4082;stroke-linejoin:round"
       d="M 36.318279,161.64645 248.50282,375.27777 361.40918,274.13405 144.06192,55.304816 Z"
       points="248.50282,375.27777 361.40918,274.13405 144.06192,55.304816 36.318279,161.64645 " />
    <path
       id="path14285"
       style="fill:#579b42;fill-opacity:1;fill-rule:evenodd;stroke:none;stroke-width:12.4082;stroke-linejoin:round"
       d="m 266.44562,376.48584 -17.9428,-1.20807 112.90636,-101.14372 23.27214,-3.12742 z"
       points="248.50282,375.27777 361.40918,274.13405 384.68132,271.00663 266.44562,376.48584 " />
  </g>
  <!-- Font Awesome Free 5.15.4 by @fontawesome - https://fontawesome.com License - https://fontawesome.com/license/free (Icons: CC BY 4.0, Fonts: SIL OFL 1.1, Code: MIT License) -->
  <path
     fill="#ffdd00"
     d="m 576,216 v 16 c 0,13.255 -10.745,24 -24,24 h -8 L 517.887,438.788 C 514.509,462.435 494.257,480 470.37,480 H 105.63 C 81.743,480 61.491,462.435 58.112,438.788 L 32,256 H 24 C 10.745,256 0,245.255 0,232 V 216 C 0,202.745 10.745,192 24,192 H 91.341 L 198.121,45.179 c 10.395,-14.292 30.407,-17.453 44.701,-7.058 14.293,10.395 17.453,30.408 7.058,44.701 L 170.477,192 H 405.523 L 326.12,82.821 C 315.725,68.529 318.886,48.515 333.179,38.12 347.47,27.725 367.485,30.885 377.88,45.178 L 484.659,192 H 552 c 13.255,0 24,10.745 24,24 z M 312,392 V 280 c 0,-13.255 -10.745,-24 -24,-24 -13.255,0 -24,10.745 -24,24 v 112 c 0,13.255 10.745,24 24,24 13.255,0 24,-10.745 24,-24 z m 112,0 V 280 c 0,-13.255 -10.745,-24 -24,-24 -13.255,0 -24,10.745 -24,24 v 112 c 0,13.255 10.745,24 24,24 13.255,0 24,-10.745 24,-24 z m -224,0 V 280 c 0,-13.255 -10.745,-24 -24,-24 -13.255,0 -24,10.745 -24,24 v 112 c 0,13.255 10.745,24 24,24 13.255,0 24,-10.745 24,-24 z"
     id="path7581"
     style="display:inline" />
</svg>
