<?xml version="1.0" encoding="UTF-8" standalone="no"?>
<svg
   width="1792"
   height="1792"
   viewBox="0 0 1792 1792"
   version="1.1"
   id="svg291"
   xmlns="http://www.w3.org/2000/svg"
   xmlns:svg="http://www.w3.org/2000/svg">
  <defs
     id="defs295" />
  <path
     fill="#E7754D"
     d="M1596 380q28 28 48 76t20 88v1152q0 40-28 68t-68 28h-1344q-40 0-68-28t-28-68v-1600q0-40 28-68t68-28h896q40 0 88 20t76 48zm-444-244v376h376q-10-29-22-41l-313-313q-12-12-41-22zm384 1528v-1024h-416q-40 0-68-28t-28-68v-416h-768v1536h1280zm-1024-864q0-14 9-23t23-9h704q14 0 23 9t9 23v64q0 14-9 23t-23 9h-704q-14 0-23-9t-9-23v-64zm736 224q14 0 23 9t9 23v64q0 14-9 23t-23 9h-704q-14 0-23-9t-9-23v-64q0-14 9-23t23-9h704zm0 256q14 0 23 9t9 23v64q0 14-9 23t-23 9h-704q-14 0-23-9t-9-23v-64q0-14 9-23t23-9h704z"
     id="path289" />
  <path
     style="fill:#e7754d;fill-opacity:1;stroke:#e7754d;stroke-width:2.10824;stroke-opacity:1"
     d="M 1152.1506,323.6663 V 137.13966 l 5.0954,1.93725 c 24.3313,9.25074 25.6092,10.43021 192.3535,177.53345 163.2167,163.56804 168.4504,169.23103 174.5237,188.83905 l 1.4692,4.74353 h -186.7209 -186.7209 z"
     id="path1460" />
</svg>
