<?xml version="1.0" encoding="UTF-8" standalone="no"?>
<svg
   viewBox="0 0 536 735"
   xmlns="http://www.w3.org/2000/svg"
   xmlns:svg="http://www.w3.org/2000/svg">
  <!-- Font Awesome Free 5.15.4 by @fontawesome - https://fontawesome.com License - https://fontawesome.com/license/free (Icons: CC BY 4.0, Fonts: SIL OFL 1.1, Code: MIT License) -->
  <path
     fill="#2fb9d3"
     d="m 497.39,361.8 -112,-48 a 24,24 0 0 0 -28,6.9 l -49.6,60.6 A 370.66,370.66 0 0 1 130.6,204.11 l 60.6,-49.6 a 23.94,23.94 0 0 0 6.9,-28 l -48,-112 A 24.16,24.16 0 0 0 122.6,0.61 l -104,24 A 24,24 0 0 0 0,48 c 0,256.5 207.9,464 464,464 a 24,24 0 0 0 23.4,-18.6 l 24,-104 a 24.29,24.29 0 0 0 -14.01,-27.6 z" />
  <path
     style="opacity:1;fill:none;fill-opacity:1;stroke:#2fb9d3;stroke-width:15.0992;stroke-dasharray:none;stroke-opacity:1"
     d="m 471.28029,485.07663 c 6.24718,3.93292 14.53354,2.78843 20.80028,6.54847 1.12884,0.6773 4.94716,4.07716 5.66789,5.03813 0.28164,0.37552 0.29785,0.92761 0.62977,1.25953 1.61903,1.61903 4.37559,2.46991 5.6679,4.40836 0.52075,0.78113 0.69625,1.76803 1.25953,2.51907 1.00666,1.34221 2.2201,2.38253 3.14883,3.7786 4.20856,6.32628 6.5927,22.12866 5.6599,29.59104 -0.44967,3.59738 -2.4851,7.19136 -4.40836,10.07626 -1.68356,2.52533 -9.75904,6.47379 -12.12708,7.45714 -2.29561,0.95327 -4.84052,1.27164 -7.07042,2.36989 -2.25294,1.10959 -4.05748,2.98511 -6.25838,4.19465 -0.76242,0.419 -1.70608,0.36033 -2.53128,0.63584 -4.72029,1.57591 -8.80159,0.10932 -11.71157,-3.77065 -0.35625,-0.475 -0.994,-0.72846 -1.25953,-1.25953 -0.18776,-0.37552 0.0823,-0.84784 0,-1.25953 -0.13019,-0.65094 -0.49958,-1.23836 -0.62977,-1.8893 -0.99731,-4.98658 4.83539,-7.71507 8.81673,-8.80089 2.63015,-0.71731 5.76018,-1.3257 8.18696,-2.51907 0.72473,-0.35638 1.17128,-1.39609 1.84564,-1.84567 1.45958,-0.97305 3.94089,-2.27235 5.66789,-2.51906 3.60718,-0.51531 7.81765,-0.0739 11.3358,0.62976 7.32736,1.46548 12.26069,3.34229 15.82733,10.8308 1.1868,2.49178 1.55978,5.29516 2.37508,7.93196 1.59852,5.16986 2.99354,11.28032 1.99278,16.78452 -1.05752,5.81635 -12.85586,14.24838 -16.84164,17.87435 -11.72452,10.66611 -22.73129,19.20682 -38.04344,23.80047 -1.3843,0.41529 -6.55743,1.44452 -8.18696,0.62976 -0.41984,-0.20992 -0.29785,-0.92761 -0.62976,-1.25953 -0.29688,-0.29687 -0.96266,0.29687 -1.25954,0 -1.60289,-1.60289 -2.51906,-4.74731 -2.51906,-6.92743 0,-0.66383 0.4474,-1.25101 0.62977,-1.8893 2.32879,-8.15079 7.78754,-8.15003 15.51568,-9.58026 1.51043,-0.27953 3.08402,0.19053 4.60824,0 2.18972,-0.27371 9.04203,-1.54727 11.33579,-0.62976 0.70275,0.2811 1.19361,0.96138 1.8893,1.25953 0.79555,0.34095 1.74491,0.24269 2.51907,0.62977 3.92019,1.96009 8.10581,7.7886 8.83441,11.995 0.23454,1.35409 -0.10249,2.75234 0,4.12277 0.0891,1.1911 0.94879,5.15403 0.7008,7.13799 -0.73802,5.9041 -2.53469,10.0363 -6.51338,14.50892 -2.45544,2.76026 -4.77055,5.66723 -7.48232,8.17612 -4.75798,4.40203 -13.26812,9.20674 -19.47048,11.78955 -3.2643,1.35934 -6.69905,2.30614 -9.90437,3.79924 -15.38896,7.16849 6.4092,-1.28167 -7.93142,4.6413 -5.83913,2.41168 -12.42641,2.16172 -18.61459,2.62492 -5.60615,0.41964 -21.26559,0.75856 -25.89933,-1.88929 -0.91131,-0.52076 -1.66496,-1.27923 -2.51906,-1.8893 -1.31088,-0.93635 -4.85333,-3.53752 -3.7786,-5.66002 0.98952,-1.95423 4.68626,-1.42098 6.29766,-1.88138 0.90268,-0.25791 1.70396,-0.79376 2.51907,-1.25953 3.16464,-1.80837 6.95657,-4.05168 10.70603,-4.40837 2.40571,-0.22886 4.83315,0 7.24973,0 5.75749,0 10.39548,-0.15385 15.11443,3.7786 3.0433,2.53608 5.95833,7.03111 6.96755,10.78629 0.44868,1.66946 0.41775,20.85065 0,23.49515 -0.25245,1.59812 -0.75479,3.15619 -1.3341,4.66686 -1.86073,4.85225 -5.41988,7.54911 -8.68796,11.34248 -0.30638,0.35563 -0.26323,0.9663 -0.62977,1.25954 -1.9948,1.59584 -4.69622,2.01945 -6.98097,3.1622 -1.16502,0.58271 -2.20317,1.39516 -3.35351,2.00635 -5.16829,2.74597 -24.19306,13.92968 -30.43143,10.46721" />
</svg>
