<?xml version="1.0" encoding="UTF-8" standalone="no"?>
<svg
   viewBox="0 0 640 512"
   version="1.1"
   id="svg157"
   xmlns="http://www.w3.org/2000/svg"
   xmlns:svg="http://www.w3.org/2000/svg">
  <defs
     id="defs161" />
  <!-- Font Awesome Free 5.15.4 by @fontawesome - https://fontawesome.com License - https://fontawesome.com/license/free (Icons: CC BY 4.0, Fonts: SIL OFL 1.1, Code: MIT License) -->
  <path
     fill="#dd6b9e"
     d="m 621.87759,90.558798 -278.94,-85.6999996 c -15.2,-4.67 -31.6,-4.67 -46.79,0 L 17.197592,90.558798 c -23.5399997,7.23 -23.5399997,38.360002 0,45.590002 l 52.785289,14.61241 c -10.67,13.19 -15.214952,201.01051 -15.864952,218.63051 -9.63,5.52 -7.185887,7.38233 -7.185887,19.27233 0,10.78 -0.801108,17.53499 7.378892,23.33499 l -20.936193,41.81854 c -2.22,9.99 0.668293,30.61787 10.892904,30.28584 l 16.939566,-0.55009 c 10.234605,-0.33235 16.299313,-20.40766 14.079313,-30.39766 l -7.000191,-40.56566 c 8.029785,-8.35563 9.148226,-13.43418 9.148226,-24.21418 0,-11.57 -0.291129,-13.75762 -9.481129,-19.37762 0.76,-15.02 20.364162,-198.80941 32.61416,-207.22941 l 195.57,60.09 c 9.06,2.78 26.44,6.25 46.79,0 l 278.95,-85.7 c 23.55,-7.24 23.55,-38.360002 0,-45.600002 z m -269.55,161.890002 c -28.53,8.76 -52.84,3.92 -65.59,0 l -145.02,-44.55 -14.18,113.46 c 0,35.35 85.96,64 192,64 106.04,0 192,-28.65 192,-64 l -14.18,-113.47 z"
     id="path155" />
</svg>
